<svg width="800" height="800" viewBox="0 0 800 800" fill="none" xmlns="http://www.w3.org/2000/svg">
<path d="M225.5 384.35C225.5 394.2 226.5 402.2 228.4 408.1C230.5 413.95 233.2 420.35 236.9 427.3C238.081 429.136 238.722 431.267 238.75 433.45C238.75 436.1 237.15 438.8 233.75 441.45L216.95 452.65C214.933 454.106 212.535 454.94 210.05 455.05C207.35 455.05 204.7 453.75 202.05 451.35C198.456 447.483 195.242 443.281 192.45 438.8C189.476 433.671 186.723 428.416 184.2 423.05C163.45 447.6 137.4 459.9 106 459.9C83.65 459.9 65.8 453.45 52.8 440.65C39.75 427.85 33.1 410.75 33.1 389.4C33.1 366.7 41.1 348.3 57.3 334.4C73.55 320.5 95.1 313.6 122.5 313.6C131.5 313.6 140.85 314.4 150.7 315.7C160.55 317.05 170.7 319.2 181.3 321.6V302.1C181.3 281.8 177.05 267.65 168.8 259.4C160.3 251.1 145.9 247.1 125.4 247.1C116.1 247.1 106.55 248.2 96.7 250.6C86.9136 252.929 77.3059 255.953 67.95 259.65C64.9294 261.018 61.8228 262.187 58.65 263.15C57.2751 263.604 55.8459 263.873 54.4 263.95C50.65 263.95 48.8 261.25 48.8 255.65V242.55C48.8 238.3 49.3 235.05 50.65 233.25C52.6648 230.797 55.236 228.86 58.15 227.6C67.4 222.8 78.6 218.8 91.65 215.6C104.65 212.1 118.5 210.55 133.15 210.55C164.8 210.55 187.95 217.75 202.85 232.15C217.5 246.55 224.95 268.45 224.95 297.85V384.35H225.45H225.5ZM117.45 424.9C126.2 424.9 135.25 423.3 144.85 420.1C154.4 416.9 162.95 411 170.1 403C174.387 398.088 177.484 392.254 179.15 385.95C180.75 379.5 181.85 371.8 181.85 362.7V351.5C173.774 349.542 165.595 348.039 157.35 347C149.059 345.928 140.71 345.376 132.35 345.35C114.5 345.35 101.45 348.85 92.7 356.05C83.9 363.25 79.7 373.4 79.7 386.75C79.7 399.25 82.85 408.6 89.5 415.05C95.9 421.7 105.2 424.9 117.45 424.9ZM331.1 453.75C326.3 453.75 323.1 452.95 321 451.05C318.85 449.45 317 445.75 315.4 440.65L252.9 234.3C251.667 230.842 250.845 227.25 250.45 223.6C250.45 219.35 252.6 216.95 256.85 216.95H282.95C287.95 216.95 291.45 217.75 293.3 219.6C295.45 221.2 297.05 224.95 298.65 230L343.35 406.75L384.85 230C386.15 224.7 387.75 221.2 389.85 219.6C393.058 217.635 396.795 216.709 400.55 216.95H421.8C426.9 216.95 430.3 217.75 432.45 219.6C434.6 221.2 436.45 224.95 437.5 230L479.55 408.9L525.55 230C526.403 226.129 528.247 222.545 530.9 219.6C533.998 217.637 537.64 216.709 541.3 216.95H566.05C570.3 216.95 572.7 219.1 572.7 223.6C572.7 224.95 572.4 226.3 572.2 227.9C571.77 230.17 571.134 232.396 570.3 234.55L506.15 440.9C504.55 446.25 502.7 449.75 500.6 451.35C497.581 453.281 494.028 454.209 490.45 454H467.6C462.55 454 459.1 453.2 456.95 451.35C454.8 449.45 452.95 446 451.9 440.65L410.65 268.5L369.65 440.45C368.35 445.8 366.75 449.25 364.65 451.1C362.5 453 358.75 453.8 354 453.8H331.1V453.75ZM673 460.95C659.192 460.968 645.43 459.357 632 456.15C618.7 452.95 608.35 449.45 601.4 445.45C597.15 443.05 594.25 440.4 593.15 437.95C592.134 435.597 591.606 433.063 591.6 430.5V416.9C591.6 411.3 593.7 408.6 597.7 408.6C599.333 408.604 600.954 408.874 602.5 409.4C604.1 409.95 606.5 411 609.15 412.1C618.15 416.1 628.05 419.3 638.4 421.45C649.05 423.55 659.4 424.65 670.05 424.65C686.85 424.65 699.85 421.7 708.9 415.85C713.248 413.218 716.82 409.481 719.253 405.019C721.686 400.557 722.892 395.53 722.75 390.45C722.84 387.02 722.25 383.606 721.014 380.405C719.778 377.204 717.921 374.28 715.55 371.8C710.8 366.7 701.75 362.15 688.7 357.9L650.1 345.9C630.7 339.75 616.3 330.65 607.55 318.65C598.984 307.562 594.31 293.961 594.25 279.95C594.25 268.75 596.65 258.85 601.4 250.3C606.2 241.8 612.6 234.3 620.6 228.4C628.6 222.3 637.6 217.75 648.25 214.55C658.9 211.35 670.05 210 681.75 210C687.65 210 693.75 210.25 699.6 211.05C705.7 211.85 711.3 212.95 716.9 214.05C722.2 215.35 727.3 216.65 732.05 218.3C736.85 219.9 740.55 221.5 743.25 223.1C746.39 224.677 749.126 226.951 751.25 229.75C752.961 232.353 753.786 235.44 753.6 238.55V251.1C753.6 256.7 751.5 259.65 747.5 259.65C743.958 259.246 740.528 258.159 737.4 256.45C721.322 249.321 703.886 245.773 686.3 246.05C671.15 246.05 659.15 248.45 650.9 253.55C642.65 258.55 638.4 266.35 638.4 277.3C638.4 284.75 641.05 291.15 646.4 296.25C651.7 301.3 661.55 306.35 675.65 310.9L713.45 322.9C732.6 329.05 746.45 337.6 754.7 348.55C762.95 359.5 766.9 372.05 766.9 385.95C766.9 397.45 764.55 407.8 760 416.9C755.289 426.031 748.674 434.045 740.6 440.4C732.35 447.05 722.5 451.9 711.05 455.35C699.05 459.1 686.55 460.95 673 460.95Z" fill="#252F3E"/>
<path fill-rule="evenodd" clip-rule="evenodd" d="M723.25 590.65C635.75 655.5 508.55 689.95 399.2 689.95C245.95 689.95 107.85 633.1 3.55005 538.6C-4.69995 531.1 2.75005 520.95 12.5501 526.85C125.4 592.5 264.55 632.3 408.55 632.3C505.6 632.3 612.3 612 710.5 570.35C725.15 563.7 737.65 579.95 723.25 590.65Z" fill="#FF9900"/>
<path fill-rule="evenodd" clip-rule="evenodd" d="M759.7 549C748.55 534.65 685.75 542.1 657.3 545.55C648.8 546.65 647.45 539.15 655.15 533.55C705.15 498.3 787.4 508.45 796.95 520.2C806.55 532.2 794.3 614.7 747.45 654.2C740.3 660.35 733.4 657.2 736.55 649.2C747.2 622.7 770.9 563.2 759.7 549.05V549Z" fill="#FF9900"/>
</svg>
