<svg width="800" height="800" viewBox="0 0 800 800" fill="none" xmlns="http://www.w3.org/2000/svg">
<path d="M266.698 23.0091H503.425L257.679 751.129C255.153 758.61 250.344 765.112 243.93 769.718C237.515 774.323 229.818 776.802 221.921 776.803H37.6891C31.706 776.804 25.8087 775.38 20.4851 772.649C15.1615 769.919 10.5646 765.959 7.07471 761.1C3.58483 756.24 1.30227 750.619 0.415865 744.702C-0.470541 738.784 0.0646885 732.741 1.97727 727.072L230.931 48.6838C233.456 41.1987 238.265 34.6943 244.682 30.0866C251.098 25.479 258.798 23.0095 266.698 23.0091Z" fill="url(#paint0_linear_445_208)"/>
<path d="M610.697 511.383H235.304C231.814 511.379 228.404 512.426 225.518 514.388C222.631 516.35 220.403 519.136 219.122 522.383C217.842 525.629 217.569 529.186 218.339 532.59C219.109 535.994 220.886 539.088 223.44 541.467L464.658 766.612C471.681 773.163 480.929 776.805 490.533 776.803H703.095L610.697 511.383Z" fill="#0078D4"/>
<path d="M266.698 23.0091C258.712 22.9785 250.926 25.502 244.476 30.2111C238.027 34.9202 233.252 41.5682 230.849 49.1839L2.25906 726.454C0.217808 732.144 -0.423038 738.241 0.390734 744.231C1.20451 750.221 3.44896 755.927 6.93422 760.866C10.4195 765.805 15.043 769.831 20.4137 772.606C25.7844 775.38 31.7442 776.82 37.7891 776.803H226.776C233.815 775.546 240.394 772.442 245.841 767.81C251.287 763.178 255.407 757.183 257.779 750.438L303.364 616.091L466.195 767.966C473.018 773.61 481.578 776.731 490.433 776.803H702.204L609.324 511.383L338.567 511.447L504.279 23.0091H266.698Z" fill="url(#paint1_linear_445_208)"/>
<path d="M569.057 48.6474C566.536 41.1744 561.734 34.6808 555.327 30.0812C548.92 25.4817 541.232 23.0082 533.345 23.0091H269.516C277.402 23.0095 285.09 25.4836 291.497 30.0829C297.903 34.6823 302.706 41.1752 305.228 48.6474L534.191 727.063C536.105 732.733 536.641 738.778 535.756 744.696C534.87 750.615 532.588 756.238 529.098 761.1C525.608 765.961 521.011 769.922 515.686 772.654C510.362 775.387 504.464 776.812 498.479 776.812H762.317C768.301 776.811 774.199 775.384 779.522 772.651C784.845 769.918 789.441 765.957 792.93 761.096C796.419 756.234 798.7 750.612 799.585 744.694C800.47 738.776 799.934 732.733 798.02 727.063L569.057 48.6474Z" fill="url(#paint2_linear_445_208)"/>
<defs>
<linearGradient id="paint0_linear_445_208" x1="352.977" y1="78.8679" x2="107.131" y2="805.16" gradientUnits="userSpaceOnUse">
<stop stop-color="#114A8B"/>
<stop offset="1" stop-color="#0669BC"/>
</linearGradient>
<linearGradient id="paint1_linear_445_208" x1="429.774" y1="417.339" x2="372.906" y2="436.568" gradientUnits="userSpaceOnUse">
<stop stop-opacity="0.3"/>
<stop offset="0.071" stop-opacity="0.2"/>
<stop offset="0.321" stop-opacity="0.1"/>
<stop offset="0.623" stop-opacity="0.05"/>
<stop offset="1" stop-opacity="0"/>
</linearGradient>
<linearGradient id="paint2_linear_445_208" x1="398.499" y1="57.6845" x2="668.365" y2="776.658" gradientUnits="userSpaceOnUse">
<stop stop-color="#3CCBF4"/>
<stop offset="1" stop-color="#2892DF"/>
</linearGradient>
</defs>
</svg>
