<svg width="800" height="808" viewBox="0 0 800 808" fill="none" xmlns="http://www.w3.org/2000/svg">
<g filter="url(#filter0_d_445_145)">
<path d="M733.993 599.998C739.373 590.335 742.715 579.45 742.715 569.672V230.323C742.715 220.547 739.375 209.663 733.993 200L399.858 400.001L733.993 599.998Z" fill="#7F3A86"/>
<path d="M429.558 792.667L713.032 622.993C721.198 618.104 728.621 609.664 734.001 600.001L399.866 400.001L65.7332 600.001C71.1137 609.664 78.5377 618.107 86.7015 622.993L370.175 792.667C386.503 802.444 413.229 802.444 429.558 792.667Z" fill="#662579"/>
<path d="M733.993 199.999C728.613 190.335 721.187 181.894 713.024 177.006L429.549 7.33201C413.221 -2.444 386.495 -2.444 370.166 7.33201L86.692 177.006C70.3603 186.78 57 210.774 57 230.323V569.675C57 579.45 60.3411 590.338 65.7237 600.001L399.858 400.001L733.993 199.999Z" fill="#9A5196"/>
<path d="M400.958 628.573C274.317 628.573 171.286 526.035 171.286 400.001C171.286 273.966 274.317 171.429 400.958 171.429C481.166 171.429 556.069 213.592 597.544 281.766L499.186 340.758C478.406 306.743 440.998 285.715 400.958 285.715C337.635 285.715 286.123 336.983 286.123 400.001C286.123 463.018 337.635 514.287 400.958 514.287C440.892 514.287 478.204 493.375 499.021 459.521L597.587 518.169C556.121 586.384 481.192 628.573 400.958 628.573Z" fill="white"/>
<path fill-rule="evenodd" clip-rule="evenodd" d="M657.004 325.715V354.212H599.855V325.715H571.289V354.212H542.715V382.858H571.289V439.852H542.715V468.572H571.289V497.144H599.855L599.858 468.572H657.004V497.144H685.57V468.572H714.144V440.001H685.57V382.858H714.144V354.212H685.57V325.715H657.004ZM657.004 440.001V382.858H599.855V439.852L657.004 440.001Z" fill="white"/>
</g>
<defs>
<filter id="filter0_d_445_145" x="-4" y="0" width="808" height="808" filterUnits="userSpaceOnUse" color-interpolation-filters="sRGB">
<feFlood flood-opacity="0" result="BackgroundImageFix"/>
<feColorMatrix in="SourceAlpha" type="matrix" values="0 0 0 0 0 0 0 0 0 0 0 0 0 0 0 0 0 0 127 0" result="hardAlpha"/>
<feOffset dy="4"/>
<feGaussianBlur stdDeviation="2"/>
<feComposite in2="hardAlpha" operator="out"/>
<feColorMatrix type="matrix" values="0 0 0 0 0 0 0 0 0 0 0 0 0 0 0 0 0 0 0.25 0"/>
<feBlend mode="normal" in2="BackgroundImageFix" result="effect1_dropShadow_445_145"/>
<feBlend mode="normal" in="SourceGraphic" in2="effect1_dropShadow_445_145" result="shape"/>
</filter>
</defs>
</svg>
