<svg width="800" height="800" viewBox="0 0 800 800" fill="none" xmlns="http://www.w3.org/2000/svg">
<path d="M617.1 226.8L624.6 215.45L637.7 223.4L643.5 227.55C657.5 238.35 686.95 265.95 693.3 311.75C704.45 309.75 715.7 308.75 726.95 308.75C753.65 308.75 771.6 314.95 781.8 320.1L787.05 322.95L790.45 325.2L800 333L796.7 343C791.571 356.709 783.557 369.157 773.2 379.5C758.7 394.45 733.2 412.1 692.75 414.4L683.85 414.65H676.45C657.95 463.5 633.1 518.55 591.35 567.95C566.578 597.305 537.194 622.433 504.35 642.35C464.975 665.711 421.856 682.085 376.9 690.75C344.7 697 312 700.1 279.25 700C206.75 700 142.75 685.6 103.4 660.4C68.25 637.95 41.25 601.3 23.1 551.55C7.21631 506.09 -0.584817 458.201 0.0500081 410.05C-0.0322591 403.877 2.10204 397.878 6.06537 393.144C10.0287 388.41 15.5583 385.255 21.65 384.25L25.05 384H552.05L556.65 383.65L564.1 382.85C576.9 381.15 596.4 377.35 610.1 369.35C593.7 342.2 589.05 310.45 596.7 276.65C599.904 262.551 604.947 248.934 611.7 236.15L617.1 226.8ZM144.5 289.2L146.5 289.55C147.414 289.892 148.236 290.439 148.904 291.15C149.571 291.862 150.066 292.717 150.35 293.65L150.65 295.65V361.4L150.35 363.45C150.061 364.388 149.559 365.247 148.882 365.958C148.205 366.67 147.373 367.215 146.45 367.55L144.5 367.85H73.9C72.5842 367.832 71.3081 367.396 70.2564 366.605C69.2047 365.814 68.4319 364.709 68.05 363.45L67.7 361.45V295.6L68.05 293.6C68.3321 292.652 68.8316 291.784 69.5087 291.063C70.1858 290.343 71.0217 289.79 71.95 289.45L73.9 289.15L144.5 289.2ZM241.85 289.2L243.8 289.55C244.723 289.885 245.555 290.43 246.232 291.142C246.909 291.853 247.411 292.712 247.7 293.65L248 295.65V361.4L247.65 363.45C247.361 364.388 246.859 365.247 246.182 365.958C245.505 366.67 244.673 367.215 243.75 367.55L241.8 367.85H171.2C169.886 367.825 168.614 367.386 167.563 366.596C166.513 365.806 165.739 364.705 165.35 363.45L165 361.5V295.65C164.989 294.312 165.392 293.004 166.152 291.903C166.913 290.802 167.995 289.963 169.25 289.5L171.2 289.15L241.85 289.2ZM340.65 289.2L342.6 289.55C343.514 289.892 344.336 290.439 345.004 291.15C345.671 291.862 346.166 292.717 346.45 293.65L346.8 295.65V361.4L346.45 363.45C346.161 364.388 345.659 365.247 344.982 365.958C344.305 366.67 343.473 367.215 342.55 367.55L340.6 367.85H270C268.684 367.832 267.408 367.396 266.356 366.605C265.305 365.814 264.532 364.709 264.15 363.45L263.85 361.45V295.6L264.15 293.6C264.432 292.652 264.932 291.784 265.609 291.063C266.286 290.343 267.122 289.79 268.05 289.45L270 289.15L340.65 289.2ZM438.25 289.2L440.2 289.55C441.123 289.885 441.955 290.43 442.632 291.142C443.309 291.853 443.811 292.712 444.1 293.65L444.45 295.65V361.4C444.461 362.738 444.058 364.046 443.298 365.147C442.537 366.248 441.455 367.087 440.2 367.55L438.2 367.85H367.65C366.334 367.832 365.058 367.396 364.006 366.605C362.955 365.814 362.182 364.709 361.8 363.45L361.5 361.45V295.6L361.8 293.6C362.082 292.652 362.582 291.784 363.259 291.063C363.936 290.343 364.772 289.79 365.7 289.45L367.7 289.15H438.3L438.25 289.2ZM536.75 289.2L538.7 289.55C539.623 289.885 540.455 290.43 541.132 291.142C541.809 291.853 542.311 292.712 542.6 293.65L542.9 295.65V361.4C542.911 362.738 542.508 364.046 541.748 365.147C540.987 366.248 539.905 367.087 538.65 367.55L536.7 367.85H466.1C464.784 367.832 463.508 367.396 462.456 366.605C461.405 365.814 460.632 364.709 460.25 363.45L459.95 361.45V295.6L460.25 293.6C460.532 292.652 461.032 291.784 461.709 291.063C462.386 290.343 463.222 289.79 464.15 289.45L466.15 289.15H536.7L536.75 289.2ZM241.75 194.6L243.75 194.95C244.658 195.287 245.477 195.827 246.144 196.529C246.812 197.231 247.31 198.076 247.6 199L247.95 201.05V266.8C247.961 268.138 247.558 269.446 246.798 270.547C246.037 271.648 244.955 272.487 243.7 272.95L241.75 273.3H171.2C169.873 273.268 168.592 272.815 167.54 272.006C166.488 271.197 165.721 270.074 165.35 268.8L165 266.8V201.05C165 199.721 165.407 198.423 166.167 197.332C166.927 196.242 168.003 195.41 169.25 194.95L171.2 194.6H241.75ZM340.55 194.6L342.55 194.95C343.458 195.287 344.277 195.827 344.944 196.529C345.612 197.231 346.11 198.076 346.4 199L346.75 201.05V266.8C346.761 268.138 346.358 269.446 345.598 270.547C344.837 271.648 343.755 272.487 342.5 272.95L340.55 273.3H270C268.673 273.268 267.392 272.815 266.34 272.006C265.288 271.197 264.521 270.074 264.15 268.8L263.85 266.8V201.05L264.15 199.05C264.439 198.112 264.941 197.253 265.618 196.542C266.295 195.83 267.127 195.285 268.05 194.95L270 194.6H340.55ZM438.2 194.6C440.9 194.6 443.2 196.45 444.05 199L444.4 201.05V266.8C444.411 268.138 444.008 269.446 443.248 270.547C442.487 271.648 441.405 272.487 440.15 272.95L438.15 273.3H367.65C366.323 273.268 365.042 272.815 363.99 272.006C362.938 271.197 362.171 270.074 361.8 268.8L361.5 266.8V201.05L361.8 199.05C362.089 198.112 362.591 197.253 363.268 196.542C363.945 195.83 364.777 195.285 365.7 194.95L367.7 194.6H438.3H438.2ZM438.2 100C440.9 100 443.2 101.85 444.05 104.4L444.4 106.4V172.2C444.411 173.538 444.008 174.846 443.248 175.947C442.487 177.048 441.405 177.887 440.15 178.35L438.15 178.65H367.65C366.334 178.632 365.058 178.196 364.006 177.405C362.955 176.614 362.182 175.509 361.8 174.25L361.5 172.25V106.4L361.8 104.4C362.089 103.462 362.591 102.603 363.268 101.892C363.945 101.18 364.777 100.635 365.7 100.3L367.65 100H438.25H438.2Z" fill="#2396ED"/>
</svg>
