<svg width="800" height="800" viewBox="0 0 800 800" fill="none" xmlns="http://www.w3.org/2000/svg">
<g clip-path="url(#clip0_447_232)">
<path d="M16.7246 440.378C-5.57486 418.078 -5.57486 381.923 16.7246 359.623L359.623 16.7246C381.923 -5.57486 418.078 -5.57486 440.378 16.7246L783.275 359.623C805.575 381.923 805.575 418.078 783.275 440.378L440.378 783.275C418.078 805.575 381.923 805.575 359.623 783.275L16.7246 440.378Z" fill="#EE513B"/>
<path d="M289.969 87.472L255.246 122.196L344.929 211.879C341.3 219.663 339.274 228.343 339.274 237.497C339.274 263.486 355.603 285.66 378.56 294.32V513.709C355.603 522.369 339.274 544.543 339.274 570.532C339.274 604.063 366.457 631.246 399.989 631.246C433.52 631.246 460.703 604.063 460.703 570.532C460.703 546.972 447.283 526.543 427.669 516.48V294.62L513.398 380.349C509.946 387.975 508.026 396.44 508.026 405.355C508.026 438.886 535.209 466.069 568.74 466.069C602.272 466.069 629.455 438.886 629.455 405.355C629.455 371.823 602.272 344.64 568.74 344.64C562.223 344.64 555.949 345.666 550.063 347.566L457.992 255.494C459.755 249.809 460.703 243.763 460.703 237.497C460.703 203.965 433.52 176.782 399.989 176.782C393.723 176.782 387.68 177.732 381.992 179.494L289.969 87.472Z" fill="white"/>
</g>
<defs>
<clipPath id="clip0_447_232">
<rect width="800" height="800" fill="white"/>
</clipPath>
</defs>
</svg>
