<svg width="421" height="126" viewBox="0 0 421 126" fill="none" xmlns="http://www.w3.org/2000/svg">
<path d="M51.4289 120.948C57.4609 126.981 67.2419 126.981 73.2739 120.948C79.3059 114.918 79.3059 105.135 73.2739 99.1053L26.4979 52.3283C20.4659 46.2963 10.6849 46.2953 4.65291 52.3283C-1.38009 58.3593 -1.37908 68.1413 4.65392 74.1743L32.3229 101.776L51.4289 120.948Z" fill="url(#paint0_radial_500_16)"/>
<path d="M73.275 5.52437C67.242 -0.508625 57.461 -0.507625 51.429 5.52437L4.65402 52.3004C-1.25298 58.2064 -1.62299 67.4494 4.03701 73.5054L4.27601 73.7604L4.58702 74.0714C4.61002 74.0944 4.63001 74.1204 4.65301 74.1444C4.67701 74.1704 4.70501 74.1904 4.73101 74.2154L32.323 101.774C17.466 86.9174 37.413 63.2314 37.413 63.2314H37.409L73.275 27.3684C79.305 21.3374 79.307 11.5564 73.275 5.52437Z" fill="url(#paint1_linear_500_16)"/>
<path d="M368.817 5.05167C362.785 -0.981326 353.004 -0.981326 346.972 5.05167C340.94 11.0817 340.94 20.8647 346.972 26.8947L393.748 73.6717C399.78 79.7037 409.561 79.7047 415.593 73.6717C421.626 67.6407 421.625 57.8587 415.592 51.8257L387.923 24.2237L368.817 5.05167Z" fill="url(#paint2_radial_500_16)"/>
<path d="M346.971 120.476C353.004 126.509 362.785 126.508 368.817 120.476L415.592 73.6996C421.499 67.7936 421.869 58.5506 416.209 52.4946L415.97 52.2396L415.659 51.9286C415.636 51.9056 415.616 51.8796 415.593 51.8556C415.569 51.8296 415.541 51.8096 415.515 51.7846L387.923 24.2256C402.78 39.0826 382.833 62.7686 382.833 62.7686H382.837L346.971 98.6316C340.941 104.663 340.939 114.444 346.971 120.476Z" fill="url(#paint3_linear_500_16)"/>
<path d="M304.248 99.4C298.714 99.4 293.581 98.5 288.848 96.7C284.181 94.9 280.114 92.3667 276.648 89.1C273.248 85.8333 270.581 82 268.648 77.6C266.781 73.2 265.848 68.4 265.848 63.2C265.848 58 266.781 53.2 268.648 48.8C270.581 44.4 273.281 40.5667 276.748 37.3C280.214 34.0333 284.281 31.5 288.948 29.7C293.614 27.9 298.681 27 304.148 27C309.681 27 314.748 27.9 319.348 29.7C324.014 31.5 328.048 34.0333 331.448 37.3C334.914 40.5667 337.614 44.4 339.548 48.8C341.481 53.1333 342.448 57.9333 342.448 63.2C342.448 68.4 341.481 73.2333 339.548 77.7C337.614 82.1 334.914 85.9333 331.448 89.2C328.048 92.4 324.014 94.9 319.348 96.7C314.748 98.5 309.714 99.4 304.248 99.4ZM304.148 85.6C307.281 85.6 310.148 85.0667 312.748 84C315.414 82.9333 317.748 81.4 319.748 79.4C321.748 77.4 323.281 75.0333 324.348 72.3C325.481 69.5667 326.048 66.5333 326.048 63.2C326.048 59.8667 325.481 56.8333 324.348 54.1C323.281 51.3667 321.748 49 319.748 47C317.814 45 315.514 43.4667 312.848 42.4C310.181 41.3333 307.281 40.8 304.148 40.8C301.014 40.8 298.114 41.3333 295.448 42.4C292.848 43.4667 290.548 45 288.548 47C286.548 49 284.981 51.3667 283.848 54.1C282.781 56.8333 282.248 59.8667 282.248 63.2C282.248 66.4667 282.781 69.5 283.848 72.3C284.981 75.0333 286.514 77.4 288.448 79.4C290.448 81.4 292.781 82.9333 295.448 84C298.114 85.0667 301.014 85.6 304.148 85.6Z" fill="url(#paint4_linear_500_16)"/>
<path d="M231.873 99.4C226.473 99.4 221.439 98.5333 216.773 96.8C212.173 95 208.173 92.4667 204.773 89.2C201.373 85.9333 198.706 82.1 196.773 77.7C194.906 73.3 193.973 68.4667 193.973 63.2C193.973 57.9333 194.906 53.1 196.773 48.7C198.706 44.3 201.373 40.4667 204.773 37.2C208.239 33.9333 212.273 31.4333 216.873 29.7C221.473 27.9 226.506 27 231.973 27C238.039 27 243.506 28.0667 248.373 30.2C253.306 32.2667 257.439 35.3333 260.773 39.4L250.373 49C247.973 46.2667 245.306 44.2333 242.373 42.9C239.439 41.5 236.239 40.8 232.773 40.8C229.506 40.8 226.506 41.3333 223.773 42.4C221.039 43.4667 218.673 45 216.673 47C214.673 49 213.106 51.3667 211.973 54.1C210.906 56.8333 210.373 59.8667 210.373 63.2C210.373 66.5333 210.906 69.5667 211.973 72.3C213.106 75.0333 214.673 77.4 216.673 79.4C218.673 81.4 221.039 82.9333 223.773 84C226.506 85.0667 229.506 85.6 232.773 85.6C236.239 85.6 239.439 84.9333 242.373 83.6C245.306 82.2 247.973 80.1 250.373 77.3L260.773 86.9C257.439 90.9667 253.306 94.0667 248.373 96.2C243.506 98.3333 238.006 99.4 231.873 99.4Z" fill="url(#paint5_linear_500_16)"/>
<path d="M165.56 98.2V28.2H181.76V98.2H165.56Z" fill="url(#paint6_linear_500_16)"/>
<path d="M84.7983 98.2V28.2H98.1983L139.498 78.6H132.998V28.2H148.998V98.2H135.698L94.2983 47.8H100.798V98.2H84.7983Z" fill="url(#paint7_linear_500_16)"/>
<defs>
<radialGradient id="paint0_radial_500_16" cx="0" cy="0" r="1" gradientUnits="userSpaceOnUse" gradientTransform="translate(2.98111 59.379) scale(85.8702 85.8702)">
<stop stop-color="#0E5298"/>
<stop offset="1" stop-color="#3CCBF4"/>
</radialGradient>
<linearGradient id="paint1_linear_500_16" x1="16.0188" y1="51.388" x2="124.693" y2="51.388" gradientUnits="userSpaceOnUse">
<stop stop-color="#3CCBF4"/>
<stop offset="1" stop-color="#0E5298"/>
</linearGradient>
<radialGradient id="paint2_radial_500_16" cx="0" cy="0" r="1" gradientUnits="userSpaceOnUse" gradientTransform="translate(417.265 66.621) rotate(180) scale(85.8702 85.8702)">
<stop stop-color="#0E5298"/>
<stop offset="1" stop-color="#3CCBF4"/>
</radialGradient>
<linearGradient id="paint3_linear_500_16" x1="404.227" y1="74.612" x2="295.553" y2="74.612" gradientUnits="userSpaceOnUse">
<stop stop-color="#3CCBF4"/>
<stop offset="1" stop-color="#0E5298"/>
</linearGradient>
<linearGradient id="paint4_linear_500_16" x1="76.4984" y1="62.2" x2="346.498" y2="62.2" gradientUnits="userSpaceOnUse">
<stop stop-color="#0E5298"/>
<stop offset="1" stop-color="#3CCBF4"/>
</linearGradient>
<linearGradient id="paint5_linear_500_16" x1="76.4984" y1="62.2" x2="346.498" y2="62.2" gradientUnits="userSpaceOnUse">
<stop stop-color="#0E5298"/>
<stop offset="1" stop-color="#3CCBF4"/>
</linearGradient>
<linearGradient id="paint6_linear_500_16" x1="76.4983" y1="62.2" x2="346.498" y2="62.2" gradientUnits="userSpaceOnUse">
<stop stop-color="#0E5298"/>
<stop offset="1" stop-color="#3CCBF4"/>
</linearGradient>
<linearGradient id="paint7_linear_500_16" x1="76.4983" y1="62.2" x2="346.498" y2="62.2" gradientUnits="userSpaceOnUse">
<stop stop-color="#0E5298"/>
<stop offset="1" stop-color="#3CCBF4"/>
</linearGradient>
</defs>
</svg>
