<svg width="200" height="30" viewBox="0 0 200 30" fill="none" xmlns="http://www.w3.org/2000/svg">
<g clip-path="url(#clip0_442_92)">
<path d="M189.466 29.277V1.07428H193.809V23.1233H200V29.277H189.466Z" fill="#0078D4"/>
<path d="M182.966 29.2772L182.174 23.9917H176.951L176.137 29.2772H171.365L176.61 0.958801H182.405L187.716 29.2772H182.966ZM181.272 17.7415L180.579 13.1118C180.506 12.6102 180.4 11.8965 180.26 10.9706C180.121 10.0318 179.982 9.06723 179.843 8.07698C179.711 7.07388 179.608 6.25082 179.535 5.6078C179.469 6.25082 179.373 7.04816 179.249 7.99982C179.132 8.93862 179.007 9.87104 178.875 10.797C178.75 11.7229 178.64 12.4945 178.545 13.1118L177.852 17.7415H181.272Z" fill="#0078D4"/>
<path d="M171.355 1.07428L166.088 29.277H160.974L155.729 1.07428H160.611L162.8 15.3685C162.88 15.9087 162.972 16.6031 163.075 17.4519C163.184 18.2878 163.283 19.1237 163.371 19.9597C163.467 20.7956 163.525 21.4772 163.547 22.0044C163.577 21.4772 163.632 20.802 163.712 19.9789C163.793 19.1559 163.881 18.3328 163.976 17.5097C164.079 16.6738 164.174 15.9858 164.262 15.4456L166.494 1.07428H171.355Z" fill="#0078D4"/>
<path d="M154.563 15.1372C154.563 17.3106 154.412 19.2911 154.112 21.0786C153.819 22.8534 153.357 24.3837 152.726 25.6698C152.096 26.9558 151.286 27.946 150.296 28.6404C149.307 29.3221 148.123 29.6629 146.744 29.6629C145.396 29.6629 144.226 29.3221 143.237 28.6404C142.254 27.946 141.444 26.9622 140.806 25.689C140.169 24.403 139.696 22.8662 139.388 21.0786C139.08 19.2911 138.926 17.2977 138.926 15.0985C138.926 12.1665 139.201 9.6201 139.751 7.45957C140.308 5.28617 141.166 3.6079 142.324 2.42475C143.482 1.22874 144.963 0.630737 146.766 0.630737C148.599 0.630737 150.087 1.22874 151.231 2.42475C152.382 3.62076 153.225 5.30546 153.76 7.47885C154.295 9.65225 154.563 12.205 154.563 15.1372ZM143.5 15.1372C143.5 16.8348 143.61 18.2944 143.83 19.5161C144.05 20.7379 144.399 21.6767 144.875 22.3325C145.352 22.9884 145.975 23.3163 146.744 23.3163C147.543 23.3163 148.178 22.9884 148.647 22.3325C149.123 21.6767 149.464 20.7379 149.669 19.5161C149.882 18.2944 149.988 16.8348 149.988 15.1372C149.988 12.5908 149.746 10.5782 149.263 9.09925C148.779 7.62032 147.947 6.88085 146.766 6.88085C145.982 6.88085 145.348 7.21521 144.864 7.88395C144.388 8.55269 144.039 9.50435 143.819 10.739C143.607 11.9735 143.5 13.4396 143.5 15.1372Z" fill="#0078D4"/>
<path d="M136.631 14.5776C136.631 17.8569 136.282 20.5834 135.586 22.7567C134.889 24.9302 133.907 26.5634 132.639 27.6565C131.378 28.7368 129.893 29.277 128.185 29.277H122.984V1.07428H128.548C130.278 1.07428 131.745 1.59512 132.947 2.63681C134.149 3.67849 135.062 5.20243 135.685 7.20864C136.315 9.21486 136.631 11.6711 136.631 14.5776ZM132.122 14.8477C132.122 13.1373 131.99 11.7226 131.726 10.6037C131.47 9.47206 131.081 8.62971 130.561 8.07671C130.04 7.51087 129.384 7.22794 128.592 7.22794H127.328V23.0268H128.295C129.615 23.0268 130.583 22.3581 131.198 21.0206C131.814 19.6703 132.122 17.6126 132.122 14.8477Z" fill="#0078D4"/>
<path d="M119.509 29.277H113.813L107.941 9.40776H107.842C107.879 10.0122 107.912 10.7388 107.941 11.5876C107.97 12.4363 107.996 13.3044 108.018 14.1918C108.04 15.0663 108.051 15.8572 108.051 16.5645V29.277H104.202V1.07428H109.876L115.726 20.6734H115.792C115.77 20.0561 115.748 19.3423 115.726 18.5321C115.705 17.7091 115.683 16.8796 115.661 16.0437C115.646 15.2078 115.639 14.4683 115.639 13.8252V1.07428H119.509V29.277Z" fill="#0078D4"/>
<path d="M97.7026 29.2772L96.9109 23.9917H91.6877L90.8739 29.2772H86.1016L91.3468 0.958801H97.1418L102.453 29.2772H97.7026ZM96.0092 17.7415L95.3164 13.1118C95.2431 12.6102 95.1368 11.8965 94.9976 10.9706C94.8583 10.0318 94.719 9.06723 94.5797 8.07698C94.4477 7.07388 94.3451 6.25082 94.2718 5.6078C94.2058 6.25082 94.1105 7.04816 93.9859 7.99982C93.8686 8.93862 93.744 9.87104 93.612 10.797C93.4874 11.7229 93.3774 12.4945 93.2821 13.1118L92.5894 17.7415H96.0092Z" fill="#0078D4"/>
<path d="M85.3544 20.7122C85.3544 22.2426 85.1345 23.6958 84.6947 25.0719C84.2548 26.435 83.5694 27.5411 82.6384 28.3899C81.7147 29.2386 80.5197 29.663 79.0536 29.663C78.3205 29.663 77.6754 29.6052 77.1182 29.4894C76.5684 29.3737 76.0552 29.1872 75.5787 28.93C75.1022 28.6599 74.6074 28.3126 74.0942 27.8883V21.098C74.9666 21.8696 75.8463 22.4612 76.7333 22.8728C77.6204 23.2714 78.4231 23.4707 79.1415 23.4707C79.5741 23.4707 79.9259 23.3807 80.1972 23.2007C80.4757 23.0207 80.681 22.7763 80.813 22.4677C80.9449 22.1462 81.0109 21.7796 81.0109 21.3681C81.0109 20.8794 80.9119 20.4678 80.714 20.1335C80.5234 19.7863 80.2155 19.4262 79.7903 19.0532C79.3651 18.6803 78.8043 18.2174 78.1079 17.6643C77.5141 17.1757 76.9753 16.6741 76.4914 16.1597C76.0149 15.6453 75.6044 15.0601 75.2598 14.4043C74.9226 13.7356 74.6624 12.9575 74.4791 12.0701C74.2958 11.1827 74.2042 10.1346 74.2042 8.92575C74.2042 7.11244 74.4571 5.59493 74.9629 4.3732C75.4761 3.13862 76.1872 2.21267 77.0962 1.59538C78.0126 0.978083 79.0682 0.669434 80.2632 0.669434C81.3115 0.669434 82.2535 0.875199 83.0892 1.28673C83.9322 1.69826 84.6873 2.16766 85.3544 2.69493L84.0239 8.57852C83.3348 8.02553 82.6567 7.58828 81.9896 7.26677C81.3225 6.93241 80.703 6.76522 80.1312 6.76522C79.7573 6.76522 79.4494 6.84881 79.2075 7.016C78.9729 7.17032 78.797 7.38251 78.6797 7.65258C78.5697 7.92265 78.5147 8.2313 78.5147 8.57852C78.5147 9.01577 78.61 9.40802 78.8006 9.75523C78.9986 10.1025 79.3248 10.4818 79.7793 10.8934C80.2412 11.292 80.8679 11.8128 81.6597 12.4559C82.4441 13.0732 83.1112 13.7419 83.661 14.4621C84.2108 15.1695 84.6287 16.0247 84.9146 17.0277C85.2078 18.018 85.3544 19.2462 85.3544 20.7122Z" fill="#0078D4"/>
<path d="M73.0928 1.07428L67.8255 29.277H62.7123L57.467 1.07428H62.3494L64.5377 15.3685C64.6183 15.9087 64.7099 16.6031 64.8126 17.4519C64.9225 18.2878 65.0215 19.1237 65.1095 19.9597C65.2048 20.7956 65.2634 21.4772 65.2854 22.0044C65.3147 21.4772 65.3697 20.802 65.4503 19.9789C65.531 19.1559 65.619 18.3328 65.7143 17.5097C65.8169 16.6738 65.9122 15.9858 66.0002 15.4456L68.2324 1.07428H73.0928Z" fill="#0078D4"/>
<path d="M56.3008 15.1372C56.3008 17.3106 56.1505 19.2911 55.8499 21.0786C55.5567 22.8534 55.0949 24.3837 54.4644 25.6698C53.8339 26.9558 53.0239 27.946 52.0342 28.6404C51.0446 29.3221 49.8606 29.6629 48.4824 29.6629C47.1335 29.6629 45.9643 29.3221 44.9746 28.6404C43.9923 27.946 43.1822 26.9622 42.5444 25.689C41.9066 24.403 41.4338 22.8662 41.1259 21.0786C40.818 19.2911 40.6641 17.2977 40.6641 15.0985C40.6641 12.1665 40.939 9.6201 41.4888 7.45957C42.0459 5.28617 42.9036 3.6079 44.0619 2.42475C45.2202 1.22874 46.701 0.630737 48.5044 0.630737C50.3371 0.630737 51.8253 1.22874 52.9689 2.42475C54.1198 3.62076 54.9629 5.30546 55.498 7.47885C56.0332 9.65225 56.3008 12.205 56.3008 15.1372ZM45.2385 15.1372C45.2385 16.8348 45.3485 18.2944 45.5684 19.5161C45.7883 20.7379 46.1365 21.6767 46.6131 22.3325C47.0896 22.9884 47.7127 23.3163 48.4824 23.3163C49.2815 23.3163 49.9156 22.9884 50.3848 22.3325C50.8613 21.6767 51.2022 20.7379 51.4074 19.5161C51.62 18.2944 51.7263 16.8348 51.7263 15.1372C51.7263 12.5908 51.4844 10.5782 51.0006 9.09925C50.5167 7.62032 49.6847 6.88085 48.5044 6.88085C47.72 6.88085 47.0859 7.21521 46.6021 7.88395C46.1255 8.55269 45.7773 9.50435 45.5574 10.739C45.3448 11.9735 45.2385 13.4396 45.2385 15.1372Z" fill="#0078D4"/>
<path d="M33.7907 6.91954C33.2775 6.91954 32.8194 7.11244 32.4162 7.49825C32.013 7.8712 31.6684 8.41777 31.3825 9.13795C31.0966 9.8581 30.8767 10.739 30.7227 11.7807C30.5761 12.8095 30.5028 13.9798 30.5028 15.2916C30.5028 17.0663 30.6311 18.5581 30.8877 19.767C31.1443 20.9759 31.5328 21.889 32.0533 22.5062C32.5811 23.1235 33.2409 23.4321 34.0326 23.4321C34.7511 23.4321 35.4402 23.2585 36.0999 22.9113C36.767 22.5641 37.4378 22.1462 38.1122 21.6575V28.1005C37.4012 28.6535 36.6717 29.0521 35.924 29.2965C35.1836 29.5408 34.3955 29.663 33.5598 29.663C31.815 29.663 30.3855 29.0586 29.2712 27.8497C28.1643 26.628 27.3469 24.9369 26.8191 22.7763C26.2986 20.6158 26.0383 18.108 26.0383 15.2531C26.0383 13.1182 26.2069 11.1635 26.5442 9.38873C26.8887 7.61401 27.3909 6.07719 28.0506 4.7783C28.7104 3.46655 29.5242 2.45702 30.4918 1.7497C31.4668 1.02952 32.5811 0.669434 33.8347 0.669434C34.6118 0.669434 35.4292 0.830187 36.2869 1.1517C37.1519 1.46034 37.995 1.9619 38.816 2.65635L37.4855 8.65568C36.899 8.16699 36.3052 7.75546 35.7041 7.4211C35.1029 7.08673 34.4651 6.91954 33.7907 6.91954Z" fill="#0078D4"/>
<path d="M18.7817 29.277V1.07428H23.1473V29.277H18.7817Z" fill="#0078D4"/>
<path d="M15.3068 29.277H9.61075L3.73874 9.40776H3.63977C3.67642 10.0122 3.70941 10.7388 3.73874 11.5876C3.76806 12.4363 3.79372 13.3044 3.81571 14.1918C3.8377 15.0663 3.8487 15.8572 3.8487 16.5645V29.277H0V1.07428H5.67408L11.5241 20.6734H11.5901C11.5681 20.0561 11.5461 19.3423 11.5241 18.5321C11.5021 17.7091 11.4801 16.8796 11.4581 16.0437C11.4435 15.2078 11.4361 14.4683 11.4361 13.8252V1.07428H15.3068V29.277Z" fill="#0078D4"/>
</g>
<defs>
<clipPath id="clip0_442_92">
<rect width="200" height="30" fill="white"/>
</clipPath>
</defs>
</svg>
