<svg width="800" height="800" viewBox="0 0 800 800" fill="none" xmlns="http://www.w3.org/2000/svg">
<g clip-path="url(#clip0_445_185)">
<path d="M400 800C620.914 800 800 620.914 800 400C800 179.086 620.914 0 400 0C179.086 0 0 179.086 0 400C0 620.914 179.086 800 400 800Z" fill="#5C2D91"/>
<path opacity="0.1" d="M122.75 112.5C82.087 148.735 49.2525 192.893 26.259 242.267C3.26542 291.64 -9.40264 345.19 -10.9687 399.632C-12.5349 454.075 -2.96601 508.264 17.1513 558.878C37.2685 609.492 67.5104 655.464 106.023 693.977C144.536 732.49 190.508 762.731 241.122 782.849C291.736 802.966 345.925 812.535 400.368 810.969C454.81 809.403 508.36 796.735 557.733 773.741C607.107 750.748 651.265 717.913 687.5 677.25L122.75 112.5Z" fill="white"/>
<path d="M92.5 465.625C90.1667 465.662 87.8511 465.214 85.6996 464.311C83.548 463.407 81.6073 462.067 80 460.375C78.3486 458.744 77.0435 456.795 76.1629 454.648C75.2823 452.5 74.8442 450.196 74.875 447.875C74.8583 445.556 75.3028 443.256 76.1826 441.111C77.0625 438.965 78.3601 437.015 80 435.375C81.5915 433.654 83.5264 432.287 85.6796 431.361C87.8328 430.435 90.1564 429.972 92.5 430C94.8402 429.994 97.1568 430.468 99.3067 431.393C101.457 432.317 103.394 433.673 105 435.375C106.668 437 107.993 438.944 108.895 441.092C109.796 443.239 110.257 445.546 110.25 447.875C110.272 450.206 109.817 452.517 108.915 454.667C108.012 456.816 106.68 458.759 105 460.375C103.379 462.049 101.436 463.377 99.2874 464.28C97.139 465.182 94.8301 465.64 92.5 465.625Z" fill="white"/>
<path d="M340.875 462.5H308.125L191 280.75C188.082 276.272 185.652 271.495 183.75 266.5H182.75C183.863 276.877 184.281 287.317 184 297.75V462.5H157.375V234.625H192L306 413.125C310.75 420.542 313.833 425.625 315.25 428.375H315.875C314.556 417.26 314.013 406.066 314.25 394.875V234.625H340.875V462.5Z" fill="white"/>
<path d="M521.125 462.5H400V234.625H515.5V258.75H427.25V334.5H509.5V358.5H427.25V437.5H521.25L521.125 462.5Z" fill="white"/>
<path d="M700 258.75H633.75V462.5H607.125V258.75H541.625V234.625H700V258.75Z" fill="white"/>
<path d="M326.5 617.5C317.476 621.871 307.521 623.973 297.5 623.625C290.841 623.925 284.195 622.797 278.008 620.318C271.82 617.839 266.234 614.065 261.625 609.25C252.44 598.969 247.601 585.526 248.125 571.75C247.789 564.291 248.954 556.84 251.553 549.84C254.151 542.84 258.129 536.433 263.25 531C268.241 525.887 274.241 521.868 280.87 519.2C287.498 516.532 294.609 515.272 301.75 515.5C310.297 515.208 318.811 516.698 326.75 519.875V532.375C319.106 528.143 310.486 525.988 301.75 526.125C296.242 525.97 290.766 527.006 285.696 529.164C280.626 531.321 276.082 534.549 272.375 538.625C264.579 547.506 260.545 559.072 261.125 570.875C260.541 582.056 264.304 593.029 271.625 601.5C275.137 605.276 279.424 608.248 284.192 610.211C288.961 612.175 294.097 613.084 299.25 612.875C308.848 613.126 318.326 610.703 326.625 605.875L326.5 617.5Z" fill="#F2F2F2"/>
<path d="M377.625 623.625C372.649 623.786 367.697 622.876 363.103 620.957C358.51 619.037 354.382 616.153 351 612.5C344.165 604.872 340.616 594.855 341.125 584.625C340.813 579.266 341.569 573.898 343.35 568.833C345.132 563.769 347.902 559.109 351.5 555.125C355.172 551.541 359.541 548.749 364.336 546.921C369.13 545.094 374.249 544.27 379.375 544.5C384.22 544.242 389.064 545.036 393.574 546.827C398.083 548.617 402.152 551.363 405.5 554.875C412.144 562.882 415.495 573.114 414.875 583.5C415.399 594.04 411.764 604.365 404.75 612.25C401.304 615.974 397.1 618.917 392.421 620.879C387.742 622.841 382.697 623.778 377.625 623.625ZM378.5 555.25C375.062 555.105 371.635 555.738 368.475 557.102C365.315 558.465 362.504 560.524 360.25 563.125C355.44 569.318 353.042 577.047 353.5 584.875C353.063 592.47 355.47 599.956 360.25 605.875C362.527 608.439 365.346 610.465 368.502 611.805C371.659 613.146 375.074 613.767 378.5 613.625C381.854 613.823 385.21 613.25 388.308 611.95C391.407 610.65 394.166 608.657 396.375 606.125C400.92 599.915 403.132 592.303 402.625 584.625C403.119 576.909 400.909 569.262 396.375 563C394.197 560.415 391.449 558.37 388.348 557.025C385.247 555.68 381.876 555.073 378.5 555.25Z" fill="#F2F2F2"/>
<path d="M473.25 559C470.55 557.231 467.345 556.397 464.125 556.625C461.607 556.717 459.15 557.426 456.97 558.69C454.79 559.954 452.955 561.735 451.625 563.875C447.905 569.765 446.113 576.669 446.5 583.625V621.875H434V546.875H446.5V562.5C447.874 557.665 450.607 553.327 454.375 550C457.635 547.171 461.809 545.617 466.125 545.625C468.541 545.516 470.957 545.855 473.25 546.625V559Z" fill="#F2F2F2"/>
<path d="M546.5 587.5H493.625C493.27 594.488 495.544 601.355 500 606.75C502.317 609.061 505.096 610.857 508.154 612.02C511.213 613.183 514.483 613.687 517.75 613.5C526.224 613.416 534.419 610.463 541 605.125V616.375C533.271 621.469 524.12 623.965 514.875 623.5C510.21 623.735 505.552 622.939 501.23 621.167C496.909 619.395 493.032 616.692 489.875 613.25C483.368 605.133 480.115 594.884 480.75 584.5C480.301 574.09 483.832 563.9 490.625 556C493.717 552.429 497.563 549.589 501.887 547.687C506.211 545.784 510.903 544.867 515.625 545C519.888 544.761 524.151 545.492 528.091 547.137C532.031 548.783 535.547 551.3 538.375 554.5C544.131 562.09 546.969 571.493 546.375 581L546.5 587.5ZM534 577.375C534.254 571.583 532.486 565.883 529 561.25C527.289 559.317 525.164 557.796 522.783 556.801C520.402 555.805 517.827 555.36 515.25 555.5C512.56 555.467 509.893 555.995 507.418 557.049C504.943 558.104 502.715 559.662 500.875 561.625C496.761 565.977 494.172 571.549 493.5 577.5L534 577.375Z" fill="#F2F2F2"/>
</g>
<defs>
<clipPath id="clip0_445_185">
<rect width="800" height="800" fill="white"/>
</clipPath>
</defs>
</svg>
