<svg width="800" height="800" viewBox="0 0 800 800" fill="none" xmlns="http://www.w3.org/2000/svg">
<g clip-path="url(#clip0_447_241)">
<path d="M785.907 479.217C781.243 465.094 769.026 455.255 753.225 452.893C745.776 451.781 737.243 452.255 727.148 454.337C709.551 457.967 696.495 459.349 686.967 459.618C722.93 398.896 752.175 329.65 769.01 264.467C796.232 159.071 781.685 111.056 764.686 89.3361C719.698 31.8525 654.061 0.969476 574.872 0.0227939C532.632 -0.492762 495.546 7.84774 476.203 13.844C458.191 10.668 438.823 8.89323 418.5 8.56449C380.412 7.95732 346.756 16.2601 317.998 33.3255C302.073 27.9436 276.523 20.354 247.014 15.5092C177.61 4.1149 121.675 12.9943 80.7612 41.8978C31.2176 76.8945 8.24928 137.698 12.4977 222.621C13.8449 249.584 28.929 331.619 52.6769 409.421C66.3256 454.138 80.8798 491.274 95.9351 519.804C117.285 560.259 140.129 584.085 165.776 592.639C180.152 597.43 206.269 600.782 233.741 577.907C237.222 582.121 241.866 586.312 248.033 590.203C255.861 595.141 265.436 599.176 274.996 601.567C309.456 610.182 341.733 608.026 369.269 595.953C369.438 600.85 369.569 605.53 369.681 609.57C369.864 616.124 370.044 622.55 370.284 628.559C371.915 669.196 374.68 700.792 382.871 722.898C383.321 724.116 383.926 725.968 384.565 727.932C388.65 740.445 395.485 761.391 412.869 777.797C430.874 794.789 452.649 800.002 472.592 800C482.595 800 492.139 798.689 500.508 796.894C530.347 790.501 564.234 780.757 588.747 745.854C611.922 712.857 623.189 663.159 625.228 584.848C625.492 582.635 625.736 580.521 625.971 578.505C626.129 577.145 626.291 575.755 626.454 574.368L631.915 574.848L633.322 574.943C663.713 576.328 700.872 569.883 723.693 559.282C741.727 550.913 799.512 520.407 785.907 479.217Z" fill="black"/>
<path d="M733.943 487.228C643.583 505.867 637.371 475.274 637.371 475.274C732.777 333.706 772.66 154.007 738.242 110.027C644.346 -9.94339 481.808 46.7947 479.095 48.2677L478.222 48.424C460.37 44.7181 440.391 42.5104 417.936 42.1439C377.049 41.4739 346.035 52.8628 322.501 70.7097C322.501 70.7097 32.5486 -48.7394 46.0339 220.939C48.9026 278.312 128.264 655.043 222.923 541.252C257.521 499.643 290.95 464.461 290.95 464.461C307.554 475.491 327.43 481.117 348.268 479.096L349.887 477.722C349.384 482.888 349.614 487.942 350.535 493.923C326.149 521.169 333.315 525.953 284.567 535.987C235.241 546.153 264.218 564.251 283.137 568.981C306.073 574.717 359.136 582.841 394.99 532.651L393.56 538.378C403.115 546.03 409.824 588.157 408.699 626.344C407.575 664.533 406.824 690.751 414.353 711.229C421.881 731.708 429.385 777.784 493.468 764.053C547.016 752.578 574.764 722.841 578.624 673.238C581.364 637.974 587.563 643.187 587.955 611.659L592.927 596.733C598.661 548.93 593.838 533.508 626.828 540.681L634.845 541.385C659.127 542.49 690.906 537.48 709.558 528.811C749.721 510.171 773.54 479.051 733.94 487.228H733.943Z" fill="#336791"/>
<path d="M339.473 246.597C331.332 245.463 323.956 246.512 320.225 249.336C318.125 250.926 317.477 252.767 317.302 254.036C316.834 257.393 319.187 261.104 320.631 263.019C324.72 268.439 330.694 272.164 336.608 272.985C337.465 273.104 338.316 273.161 339.164 273.161C349.026 273.161 357.99 265.484 358.78 259.816C359.768 252.719 349.464 247.987 339.473 246.597Z" fill="white"/>
<path d="M609.233 246.821C608.457 241.258 598.553 239.672 589.158 240.978C579.778 242.286 570.679 246.52 571.439 252.096C572.05 256.432 579.877 263.835 589.146 263.833C589.927 263.833 590.718 263.781 591.513 263.67C597.7 262.813 602.239 258.884 604.395 256.619C607.681 253.17 609.579 249.322 609.233 246.821Z" fill="white"/>
<path d="M764.013 485.11C760.567 474.691 749.478 471.338 731.053 475.144C676.347 486.434 656.755 478.613 650.321 473.876C692.844 409.096 727.825 330.794 746.696 257.734C755.636 223.127 760.574 190.989 760.977 164.794C761.422 136.038 756.527 114.911 746.426 102.004C705.705 49.9706 645.941 22.0605 573.597 21.2935C523.862 20.7348 481.842 33.4638 473.696 37.0422C456.54 32.7758 437.838 30.1567 417.48 29.8226C380.143 29.219 347.871 38.1577 321.15 56.3764C309.544 52.058 279.548 41.7612 242.868 35.853C179.45 25.6407 129.056 33.3776 93.0932 58.8554C50.1818 89.257 30.3715 143.601 34.2103 220.373C35.5019 246.205 50.2177 325.664 73.4446 401.761C104.017 501.917 137.248 558.617 172.216 570.279C176.308 571.645 181.029 572.6 186.231 572.6C198.987 572.6 214.624 566.85 230.896 547.29C257.922 514.776 283.155 487.53 292.457 477.63C306.203 485.01 321.301 489.129 336.748 489.542C336.775 489.946 336.816 490.35 336.852 490.753C333.754 494.428 331.212 497.649 329.045 500.399C318.344 513.983 316.117 516.811 281.67 523.905C271.873 525.926 245.845 531.289 245.466 549.532C245.051 569.462 276.227 577.833 279.78 578.721C292.159 581.819 304.083 583.348 315.456 583.348C343.116 583.346 367.455 574.257 386.908 556.668C386.308 627.724 389.272 697.74 397.803 719.074C404.789 736.536 421.86 779.218 475.781 779.214C483.69 779.214 492.401 778.295 501.981 776.241C558.254 764.175 582.69 739.305 592.144 684.472C597.203 655.168 605.884 585.189 609.966 547.654C618.583 550.342 629.677 551.572 641.67 551.57C666.682 551.57 695.543 546.257 713.643 537.855C733.974 528.414 770.666 505.24 764.013 485.11ZM630.002 231.464C629.815 242.546 628.29 252.606 626.674 263.107C624.935 274.401 623.135 286.077 622.682 300.252C622.235 314.047 623.958 328.389 625.625 342.257C628.991 370.269 632.445 399.11 619.071 427.568C616.993 423.876 614.987 419.849 613.147 415.388C611.485 411.359 607.877 404.887 602.881 395.928C583.437 361.061 537.906 279.409 561.214 246.09C568.155 236.171 585.774 225.976 630.002 231.464ZM576.394 43.7336C641.213 45.1653 692.487 69.4144 728.791 115.804C756.635 151.386 725.975 313.292 637.215 452.968C636.338 451.854 635.445 450.73 634.522 449.577C634.154 449.115 633.778 448.646 633.399 448.172C656.335 410.292 651.85 372.814 647.858 339.585C646.218 325.949 644.67 313.069 645.063 300.973C645.471 288.147 647.167 277.151 648.805 266.517C650.822 253.41 652.872 239.851 652.306 223.866C652.728 222.19 652.899 220.208 652.678 217.857C651.234 202.527 633.733 156.653 598.061 115.126C578.551 92.4168 550.095 67.0001 511.243 49.8574C527.955 46.394 550.808 43.1642 576.394 43.7336ZM213.678 532.973C195.752 554.525 183.371 550.396 179.301 549.039C152.774 540.19 121.997 484.128 94.8609 395.224C71.3806 318.299 57.6582 240.945 56.5732 219.254C53.144 150.655 69.7729 102.845 106 77.1531C164.957 35.3428 261.888 60.3679 300.837 73.061C300.277 73.6125 299.695 74.1298 299.139 74.6903C235.227 139.239 236.743 249.521 236.899 256.261C236.894 258.862 237.111 262.545 237.411 267.611C238.51 286.158 240.557 320.68 235.09 359.776C230.008 396.106 241.207 431.665 265.81 457.335C268.357 459.992 271.016 462.487 273.762 464.835C262.81 476.563 239.01 502.497 213.678 532.973ZM281.977 441.841C262.147 421.153 253.142 392.373 257.266 362.877C263.04 321.577 260.908 285.608 259.763 266.285C259.603 263.581 259.461 261.212 259.377 259.342C268.715 251.064 311.983 227.879 342.84 234.949C356.923 238.175 365.501 247.763 369.068 264.257C387.531 349.643 371.513 385.233 358.642 413.831C355.989 419.723 353.483 425.292 351.342 431.054L349.684 435.507C345.484 446.769 341.577 457.238 339.155 467.181C318.077 467.116 297.569 458.113 281.977 441.841ZM285.212 556.997C279.058 555.46 273.522 552.788 270.274 550.573C272.986 549.296 277.815 547.561 286.188 545.836C326.712 537.492 332.969 531.606 346.635 514.253C349.77 510.276 353.321 505.765 358.24 500.272L358.245 500.264C365.573 492.062 368.923 493.453 375 495.973C379.925 498.012 384.722 504.184 386.667 510.978C387.587 514.186 388.622 520.278 385.239 525.015C356.69 564.987 315.089 564.474 285.212 556.997ZM497.287 754.347C447.713 764.969 430.161 739.675 418.594 710.759C411.128 692.089 407.46 607.906 410.063 514.943C410.097 513.705 409.921 512.51 409.58 511.388C409.283 509.219 408.827 507.026 408.195 504.818C404.322 491.292 394.889 479.976 383.572 475.286C379.076 473.423 370.821 470.005 360.904 472.541C363.02 463.827 366.688 453.988 370.663 443.332L372.332 438.849C374.211 433.796 376.566 428.561 379.06 423.021C392.529 393.097 410.976 352.113 390.955 259.523C383.455 224.845 358.414 207.91 320.452 211.843C297.692 214.198 276.872 223.381 266.487 228.646C264.254 229.777 262.212 230.87 260.304 231.935C263.201 196.992 274.154 131.692 315.118 90.3779C340.908 64.3666 375.258 51.5208 417.11 52.2124C499.572 53.5633 552.452 95.882 582.295 131.146C608.009 161.535 621.935 192.145 627.493 208.654C585.7 204.406 557.277 212.656 542.866 233.255C511.52 278.064 560.016 365.036 583.324 406.834C587.597 414.495 591.287 421.115 592.448 423.928C600.037 442.323 609.863 454.603 617.038 463.568C619.237 466.315 621.371 468.979 622.993 471.305C610.336 474.956 587.599 483.386 589.67 525.53C588 546.679 576.115 645.687 570.079 680.668C562.111 726.881 545.104 744.095 497.287 754.347ZM704.214 517.545C691.271 523.554 669.61 528.061 649.033 529.028C626.305 530.093 614.737 526.482 612.015 524.262C610.736 497.999 620.514 495.254 630.859 492.35C632.485 491.892 634.071 491.448 635.602 490.913C636.554 491.687 637.595 492.456 638.736 493.208C657.003 505.266 689.586 506.566 735.582 497.072C735.75 497.036 735.919 497.004 736.086 496.97C729.884 502.77 719.267 510.556 704.214 517.545Z" fill="white"/>
</g>
<defs>
<clipPath id="clip0_447_241">
<rect width="800" height="800" fill="white"/>
</clipPath>
</defs>
</svg>
