<svg width="800" height="800" viewBox="0 0 800 800" fill="none" xmlns="http://www.w3.org/2000/svg">
<mask id="mask0_483_467" style="mask-type:alpha" maskUnits="userSpaceOnUse" x="100" y="0" width="600" height="800">
<path d="M666.625 0C685.055 0 700 14.9424 700 33.375V766.625C700 785.055 685.055 800 666.625 800H133.333C114.924 800 100 785.075 100 766.665V433.333C100 414.924 114.924 400 133.333 400H262.5V233.333C262.5 214.924 277.424 200 295.833 200H425V33.375C425 14.9425 439.942 0 458.375 0H666.625Z" fill="white"/>
</mask>
<g mask="url(#mask0_483_467)">
<path d="M700 33.375V766.625C700 785.055 685.055 800 666.625 800H458.375C439.942 800 425 785.055 425 766.625V33.375C425 14.9425 439.942 0 458.375 0H666.625C685.06 0 700 14.9424 700 33.375Z" fill="url(#paint0_linear_483_467)"/>
<g filter="url(#filter0_dd_483_467)">
<path d="M537.5 233.333V800H262.5V233.333C262.5 214.924 277.424 200 295.833 200H504.165C522.575 200 537.5 214.924 537.5 233.333Z" fill="url(#paint1_linear_483_467)"/>
</g>
<path d="M100 433.333V766.665C100 785.075 114.924 800 133.333 800H375V433.333C375 414.924 360.076 400 341.667 400H133.333C114.924 400 100 414.924 100 433.333Z" fill="url(#paint2_linear_483_467)"/>
</g>
<defs>
<filter id="filter0_dd_483_467" x="129.167" y="99.9999" width="541.667" height="866.667" filterUnits="userSpaceOnUse" color-interpolation-filters="sRGB">
<feFlood flood-opacity="0" result="BackgroundImageFix"/>
<feColorMatrix in="SourceAlpha" type="matrix" values="0 0 0 0 0 0 0 0 0 0 0 0 0 0 0 0 0 0 127 0" result="hardAlpha"/>
<feOffset dy="6.33333"/>
<feGaussianBlur stdDeviation="6.33333"/>
<feColorMatrix type="matrix" values="0 0 0 0 0 0 0 0 0 0 0 0 0 0 0 0 0 0 0.2 0"/>
<feBlend mode="normal" in2="BackgroundImageFix" result="effect1_dropShadow_483_467"/>
<feColorMatrix in="SourceAlpha" type="matrix" values="0 0 0 0 0 0 0 0 0 0 0 0 0 0 0 0 0 0 127 0" result="hardAlpha"/>
<feOffset dy="33.3333"/>
<feGaussianBlur stdDeviation="66.6667"/>
<feColorMatrix type="matrix" values="0 0 0 0 0 0 0 0 0 0 0 0 0 0 0 0 0 0 0.18 0"/>
<feBlend mode="normal" in2="effect1_dropShadow_483_467" result="effect2_dropShadow_483_467"/>
<feBlend mode="normal" in="SourceGraphic" in2="effect2_dropShadow_483_467" result="shape"/>
</filter>
<linearGradient id="paint0_linear_483_467" x1="379.167" y1="-8.37803e-06" x2="723.91" y2="753.575" gradientUnits="userSpaceOnUse">
<stop stop-color="#E6AD10"/>
<stop offset="1" stop-color="#C87E0E"/>
</linearGradient>
<linearGradient id="paint1_linear_483_467" x1="262.477" y1="200" x2="552.895" y2="780.835" gradientUnits="userSpaceOnUse">
<stop stop-color="#F6D751"/>
<stop offset="1" stop-color="#E6AD10"/>
</linearGradient>
<linearGradient id="paint2_linear_483_467" x1="99.9775" y1="400" x2="259.892" y2="790.84" gradientUnits="userSpaceOnUse">
<stop stop-color="#F9E589"/>
<stop offset="1" stop-color="#F6D751"/>
</linearGradient>
</defs>
</svg>
