<svg width="800" height="800" viewBox="0 0 800 800" fill="none" xmlns="http://www.w3.org/2000/svg">
<path d="M372.621 165.715C339.97 116.748 332.912 51.3059 331.372 24.4133C248.435 42.3484 166.038 74.5195 170.797 98.213C171.396 101.192 175.155 104.771 181.394 108.25L171.636 125.705C159.72 119.027 153.021 111.329 151.202 102.132C145.823 75.3193 176.195 51.066 244.016 27.9723C290.324 12.1967 337.031 2.77923 339.01 2.39934L350.947 0V12.2166C350.947 13.0564 351.467 97.9531 389.257 154.638L372.621 165.715Z" fill="#CFD8DC"/>
<path d="M405.952 800H400.933C237.138 800 54.8484 748.554 33.3144 662.458C20.178 609.872 63.1462 551.768 157.56 494.484L167.957 511.559C83.0007 563.125 42.072 614.971 52.729 657.619C71.4239 732.359 244.176 778.946 395.695 779.986C413.71 753.053 510.503 594.836 455.259 382.635L474.593 377.596C537.556 619.37 410.251 794.222 408.971 795.961L405.952 800Z" fill="#CFD8DC"/>
<path d="M109.634 726.14C98.8565 726.14 93.518 724.961 92.6383 724.741C89.1192 723.881 86.36 721.182 85.4002 717.702C84.4205 714.223 85.4202 710.484 87.9795 707.945C89.4191 706.506 231.88 563.825 251.115 448.456L270.829 451.736C254.294 550.988 156.561 664.137 117.751 705.806C156.521 703.586 254.414 685.431 442.342 580.24C295.682 564.165 272.489 446.757 272.249 445.497L291.904 441.878C292.843 446.797 316.417 562.065 476.733 562.065C476.793 562.065 476.833 562.065 476.893 562.065C481.431 562.065 485.37 565.104 486.53 569.463C487.73 573.822 485.81 578.441 481.911 580.72C257.273 710.864 148.343 726.12 109.634 726.14Z" fill="#CFD8DC"/>
<path d="M201.468 774.007C197.33 774.007 193.571 771.448 192.111 767.509C190.531 763.29 191.971 758.511 195.65 755.872C196.33 755.372 231.9 729.119 269.75 671.335C255.194 664.897 240.458 657.379 225.842 648.602C208.087 637.945 194.67 626.508 184.653 614.791C133.267 628.347 85.8401 633.706 44.1915 630.167L45.8711 610.252C83.3808 613.431 126.029 608.992 172.256 597.456C140.805 543.71 169.677 490.365 170.077 489.645L187.552 499.383C186.213 501.822 162.259 546.77 192.531 592.017C236.539 579.381 283.486 560.686 332.073 536.392C343.249 499.702 351.987 457.974 356.566 410.907C356.886 407.688 358.725 404.829 361.524 403.209C364.324 401.589 367.743 401.449 370.682 402.789C371.322 403.089 435.944 432.601 482.731 451.856C486.13 453.255 488.49 456.414 488.87 460.073C489.269 463.732 487.61 467.291 484.551 469.371C438.783 500.562 393.316 527.615 349.028 550.189C334.992 594.676 317.616 631.706 299.861 661.978C373.881 689.63 438.123 690.05 438.943 690.05C443.502 690.05 447.481 693.129 448.621 697.548C449.76 701.967 447.781 706.586 443.802 708.805C353.027 759.231 208.526 773.427 202.428 774.007C202.108 773.987 201.788 774.007 201.468 774.007ZM289.144 679.373C268.35 711.644 247.916 734.818 232.64 749.954C272.589 744.075 342.63 731.199 400.754 707.186C372.921 703.767 332.632 696.169 289.144 679.373ZM206.327 608.673C214.185 616.51 223.982 624.168 236.119 631.466C250.835 640.304 265.771 647.802 280.507 654.16C295.583 628.887 310.518 598.555 323.335 562.825C282.926 582.06 243.697 597.416 206.327 608.673ZM374.981 426.683C370.882 462.033 364.564 494.284 356.726 523.656C389.917 505.961 423.787 485.746 457.938 463.153C426.967 450.036 392.916 434.78 374.981 426.683Z" fill="#CFD8DC"/>
<path d="M269.45 152.178C267.111 152.178 264.791 151.338 262.952 149.779C230.761 122.226 192.871 66.1618 191.271 63.7825C188.692 59.9635 189.092 54.8649 192.191 51.4659C195.27 48.0468 200.349 47.247 204.348 49.4264C204.568 49.4864 223.103 57.1243 348.648 78.0386C352.267 78.6384 355.246 81.1577 356.446 84.5968C357.666 88.0358 356.886 91.8748 354.447 94.594C319.296 133.643 274.888 150.839 273.009 151.538C271.849 151.958 270.63 152.178 269.45 152.178ZM223.922 75.1194C236.539 92.0947 254.714 115.028 271.349 130.484C281.567 125.825 304.48 114.129 326.214 94.5341C274.569 85.7165 243.057 79.4382 223.922 75.1194Z" fill="#CFD8DC"/>
<path d="M347.808 428.102C346.448 428.102 345.069 427.822 343.789 427.262C339.81 425.503 337.411 421.384 337.871 417.065C343.709 362.1 259.372 340.046 258.512 339.846C255.033 338.966 252.274 336.267 251.334 332.808C250.395 329.349 251.374 325.63 253.914 323.091C258.053 318.952 356.665 221.159 480.392 167.454C483.851 165.954 487.769 166.514 490.689 168.853C493.588 171.212 494.928 174.991 494.168 178.63C470.454 293.479 360.005 419.444 355.326 424.743C353.346 426.922 350.587 428.102 347.808 428.102ZM280.066 325.83C303.74 334.728 345.209 355.322 355.706 392.932C384.678 356.782 446.521 273.504 469.614 194.306C381.899 236.495 308.039 300.117 280.066 325.83Z" fill="#B71C1C"/>
<path d="M172.576 507.281L163.079 489.686C200.729 469.391 243.857 432.041 279.187 388.633C249.115 409.228 231.9 423.324 231.36 423.784L218.584 408.388C219.364 407.748 253.854 379.456 311.178 344.006C326.914 318.693 339.011 292.66 345.229 267.707C346.289 263.468 347.208 259.369 347.948 255.41C309.459 241.674 273.949 233.536 249.555 230.037C245.856 229.517 242.777 226.978 241.537 223.479C240.298 219.98 241.118 216.061 243.617 213.341C245.316 211.502 285.925 167.994 336.671 144.1C340.61 142.241 345.329 143.161 348.288 146.38C349.628 147.839 377.08 178.671 370.102 242.453C393.196 251.451 416.989 262.388 439.903 275.404C495.068 250.611 557.711 228.297 624.432 214.821C627.871 214.141 631.69 215.381 634.05 218.18C636.389 220.979 637.029 224.838 635.709 228.237C609.716 294.859 540.015 366.02 537.056 369.019C535.037 371.058 532.278 372.078 529.398 371.978C526.539 371.818 523.9 370.458 522.1 368.219C499.707 340.067 470.435 316.753 438.863 297.778C395.375 317.853 356.866 339.327 325.214 358.742C284.826 421.784 223.862 479.668 172.576 507.281ZM460.757 288.061C486.55 304.696 510.564 324.251 530.418 347.005C546.974 329.05 586.703 283.662 609.236 238.595C556.251 250.791 506.105 268.446 460.757 288.061ZM366.923 262.588C366.263 265.847 365.503 269.186 364.664 272.585C360.465 289.361 353.787 306.596 345.229 323.791C367.143 311.275 391.396 298.358 417.569 285.842C400.814 276.964 383.718 269.246 366.923 262.588ZM271.929 213.601C294.143 217.96 321.515 225.078 350.727 235.315C353.767 198.466 343.809 175.892 337.791 165.894C310.279 180.251 286.185 200.445 271.929 213.601Z" fill="#B71C1C"/>
<path d="M271.969 310.135C271.969 397.711 198.989 467.292 146.403 518.078C137.606 526.675 107.814 528.075 107.814 528.075C115.212 520.477 123.61 512.479 132.607 503.882C182.593 455.495 251.974 389.313 251.974 310.135C251.974 216.361 214.185 179.371 184.393 149.779C171.197 136.382 160 123.586 153.201 107.99L159.4 105.391C166.198 108.39 173.996 111.789 179.994 114.389C184.793 121.387 191.191 128.185 198.589 135.583C229.181 166.174 271.969 208.163 271.969 310.135Z" fill="#B71C1C"/>
<path d="M769.532 336.007C769.532 336.007 757.436 337.727 754.037 338.127C578.885 357.521 398.134 407.908 294.763 449.296C257.373 464.292 218.584 482.487 183.193 502.882C182.993 503.082 182.793 503.082 182.393 503.281C161.599 515.278 111.013 540.071 70.0243 561.865C130.008 498.083 242.377 448.896 287.165 430.901C388.537 390.313 562.689 341.326 734.042 320.332C713.848 296.738 664.461 246.752 567.288 209.562C510.503 187.568 424.127 175.172 347.948 164.175C226.781 146.779 157.8 135.183 151.202 102.192C149.802 95.5934 150.802 88.9952 153.801 82.597C160.4 93.394 169.797 100.992 175.995 105.391C178.994 107.39 181.194 108.59 181.994 108.99L182.194 109.19C210.586 124.186 287.165 135.183 350.947 144.38C428.126 155.577 515.502 168.173 574.486 190.767C711.848 243.753 759.235 319.532 761.235 322.731C763.034 325.73 769.532 336.007 769.532 336.007Z" fill="#B71C1C"/>
</svg>
