<svg width="800" height="800" viewBox="0 0 800 800" fill="none" xmlns="http://www.w3.org/2000/svg">
<g clip-path="url(#clip0_480_430)">
<path d="M799.999 400.029C799.992 492.57 767.898 582.247 709.186 653.778C650.473 725.31 568.774 774.271 478.009 792.319C387.245 810.367 293.03 796.385 211.418 752.756C129.807 709.127 65.8477 638.55 30.4388 553.05C-4.97006 467.551 -9.63785 372.419 17.2308 283.864C44.0994 195.309 100.842 118.809 177.79 67.4002C254.739 15.9911 347.132 -7.14677 439.228 1.92884C531.323 11.0044 617.423 51.732 682.856 117.172C720.054 154.277 749.553 198.368 769.656 246.91C789.759 295.452 800.071 347.489 799.999 400.029Z" fill="white"/>
<path d="M739.999 400.029C739.993 478.689 712.714 554.914 662.808 615.716C612.902 676.518 543.458 718.135 466.308 733.475C389.158 748.816 309.076 736.932 239.706 699.847C170.336 662.762 115.971 602.772 85.873 530.097C55.7755 457.423 51.8078 376.56 74.6462 301.289C97.4845 226.017 145.716 160.992 211.122 117.294C276.528 73.5968 355.062 53.9296 433.343 61.6438C511.625 69.3581 584.809 103.977 640.428 159.601C672.046 191.14 697.119 228.617 714.207 269.878C731.295 311.139 740.06 355.37 739.999 400.029Z" fill="#6D9A00"/>
<path d="M276 399.543C275.846 395.838 276.463 392.141 277.812 388.686C279.161 385.231 281.212 382.094 283.836 379.473C286.46 376.852 289.599 374.804 293.055 373.459C296.511 372.113 300.208 371.5 303.914 371.657C309.428 371.663 314.816 373.303 319.398 376.371C323.98 379.438 327.55 383.796 329.656 388.892C331.763 393.987 332.311 399.593 331.232 405.001C330.152 410.408 327.494 415.374 323.593 419.271C319.692 423.168 314.723 425.821 309.315 426.895C303.906 427.969 298.301 427.415 293.207 425.303C288.113 423.192 283.76 419.618 280.697 415.033C277.634 410.447 276 405.057 276 399.543Z" fill="white"/>
<path d="M372.314 399.543C372.16 395.838 372.777 392.141 374.126 388.686C375.475 385.231 377.526 382.094 380.15 379.473C382.774 376.852 385.913 374.804 389.369 373.459C392.825 372.113 396.523 371.5 400.228 371.657C405.742 371.663 411.131 373.303 415.713 376.371C420.295 379.438 423.864 383.796 425.971 388.892C428.077 393.987 428.625 399.593 427.546 405.001C426.467 410.408 423.809 415.374 419.907 419.271C416.006 423.168 411.038 425.821 405.629 426.895C400.221 427.969 394.615 427.415 389.521 425.303C384.428 423.192 380.074 419.618 377.011 415.033C373.949 410.447 372.314 405.057 372.314 399.543Z" fill="white"/>
<path d="M468.571 399.543C468.417 395.838 469.034 392.141 470.383 388.686C471.732 385.231 473.783 382.094 476.407 379.473C479.031 376.852 482.17 374.804 485.626 373.459C489.082 372.113 492.78 371.5 496.485 371.657C501.999 371.663 507.388 373.303 511.97 376.371C516.552 379.438 520.121 383.796 522.228 388.892C524.334 393.987 524.882 399.593 523.803 405.001C522.724 410.408 520.066 415.374 516.165 419.271C512.264 423.168 507.295 425.821 501.886 426.895C496.478 427.969 490.872 427.415 485.779 425.303C480.685 423.192 476.331 419.618 473.268 415.033C470.206 410.447 468.571 405.057 468.571 399.543Z" fill="white"/>
<path d="M160.543 425.457V375.515C169.095 375.505 177.592 374.135 185.714 371.457C190.996 368.519 195.343 364.152 198.257 358.858C202.103 352.013 204.569 344.48 205.514 336.686C206.814 325.153 207.339 313.546 207.086 301.943C206.495 283.113 207.671 264.268 210.6 245.658C212.39 236.074 216.801 227.173 223.343 219.943C229.364 212.553 237.405 207.073 246.485 204.172C258.785 201.191 271.439 199.932 284.085 200.429H294.457V241.486C285.074 240.902 275.657 241.779 266.543 244.086C262.684 245.597 259.465 248.392 257.428 252.001C255.217 260.784 254.255 269.835 254.571 278.886C254.571 287.629 253.981 304.21 252.8 328.629C252.536 339.934 250.827 351.158 247.714 362.029C245.445 369.612 241.899 376.753 237.228 383.143C231.661 389.833 225.087 395.616 217.743 400.286C225 404.605 231.41 410.211 236.657 416.829C241.818 423.669 245.637 431.425 247.914 439.686C250.939 451.528 252.645 463.669 253 475.886C253.914 498.914 254.371 513.619 254.371 520C254.031 528.986 255.092 537.969 257.514 546.629C259.708 550.331 263.048 553.22 267.028 554.857C275.977 557.33 285.276 558.296 294.543 557.714V600.171H284.171C271.643 600.463 259.158 598.607 247.257 594.686C238.173 591.96 229.958 586.907 223.428 580.029C216.818 572.809 212.312 563.915 210.4 554.314C207.729 538.403 206.61 522.27 207.057 506.143C207.736 489.498 206.682 472.827 203.914 456.4C202.168 447.291 197.612 438.958 190.886 432.572C181.572 427.577 171.106 425.123 160.543 425.457Z" fill="white"/>
<path d="M608.142 432.686C601.415 439.072 596.859 447.405 595.113 456.514C592.345 472.942 591.292 489.612 591.97 506.257C592.391 522.349 591.253 538.443 588.57 554.314C586.659 563.915 582.153 572.809 575.542 580.029C569.047 586.986 560.84 592.119 551.742 594.914C539.84 598.836 527.355 600.691 514.828 600.4H504.456V558.029C513.723 558.61 523.021 557.645 531.971 555.171C535.951 553.534 539.291 550.646 541.485 546.943C543.907 538.283 544.967 529.3 544.628 520.314C544.628 513.933 545.085 499.229 545.999 476.2C546.375 463.99 548.1 451.86 551.142 440.029C553.419 431.768 557.238 424.012 562.399 417.172C567.646 410.554 574.056 404.948 581.313 400.629C573.969 395.959 567.395 390.176 561.828 383.486C557.157 377.096 553.611 369.955 551.342 362.372C548.229 351.501 546.52 340.277 546.256 328.972C545.075 304.553 544.485 287.972 544.485 279.229C544.801 270.177 543.839 261.126 541.628 252.343C539.591 248.735 536.372 245.94 532.513 244.429C523.399 242.122 513.982 241.245 504.599 241.829V200.486H514.971C527.617 199.989 540.271 201.248 552.571 204.229C561.651 207.13 569.692 212.61 575.713 220.001C582.255 227.23 586.666 236.131 588.456 245.715C591.385 264.326 592.561 283.17 591.97 302C591.717 313.604 592.242 325.211 593.542 336.743C594.487 344.537 596.953 352.07 600.799 358.915C603.713 364.209 608.06 368.576 613.342 371.515C621.479 374.218 629.996 375.607 638.57 375.629V425.457C627.968 425.143 617.47 427.636 608.142 432.686Z" fill="white"/>
</g>
<defs>
<clipPath id="clip0_480_430">
<rect width="800" height="800" fill="white"/>
</clipPath>
</defs>
</svg>
