<svg width="800" height="800" viewBox="0 0 800 800" fill="none" xmlns="http://www.w3.org/2000/svg">
<g clip-path="url(#clip0_447_236)">
<path d="M0 400V800H400H800V400V0H400H0V400Z" fill="#007ACC"/>
<path d="M176.91 402.654L176.656 435.416L228.719 435.416H280.783V583.352V731.289H317.608H354.434V583.352L354.434 435.416H406.497H458.561V403.289C458.561 385.511 458.18 370.654 457.672 370.273C457.291 369.765 393.926 369.511 317.1 369.638L177.291 370.019L176.91 402.654Z" fill="white"/>
<path d="M645.521 369.089C665.838 374.168 681.33 383.184 695.552 397.914C702.918 405.787 713.838 420.136 714.727 423.565C714.981 424.581 680.187 447.946 659.108 461.025C658.346 461.533 655.298 458.231 651.87 453.152C641.584 438.168 630.79 431.692 614.283 430.549C590.029 428.898 574.41 441.597 574.537 462.803C574.537 469.025 575.425 472.708 577.965 477.787C583.298 488.835 593.203 495.438 624.314 508.898C681.584 533.533 706.092 549.787 721.33 572.898C738.346 598.676 742.156 639.819 730.6 670.422C717.902 703.692 686.41 726.295 642.092 733.787C628.378 736.2 595.87 735.819 581.14 733.152C549.013 727.438 518.537 711.565 499.743 690.739C492.378 682.612 478.029 661.406 478.918 659.882C479.298 659.374 482.6 657.343 486.283 655.184C489.838 653.152 503.298 645.406 515.997 638.041L538.981 624.708L543.806 631.819C550.537 642.104 565.267 656.2 574.156 660.898C599.679 674.358 634.727 672.454 651.997 656.962C659.362 650.231 662.41 643.247 662.41 632.962C662.41 623.692 661.267 619.628 656.441 612.644C650.219 603.755 637.521 596.263 601.457 580.644C560.187 562.866 542.41 551.819 526.156 534.295C516.759 524.136 507.87 507.882 504.187 494.295C501.14 482.993 500.378 454.676 502.791 443.247C511.298 403.374 541.394 375.565 584.822 367.311C598.918 364.644 631.679 365.66 645.521 369.089Z" fill="white"/>
</g>
<defs>
<clipPath id="clip0_447_236">
<rect width="800" height="800" fill="white"/>
</clipPath>
</defs>
</svg>
