<svg width="800" height="800" viewBox="0 0 800 800" fill="none" xmlns="http://www.w3.org/2000/svg">
<g clip-path="url(#clip0_482_453)">
<path d="M57.1585 400C57.1585 349.717 67.4346 302.871 86.8897 260.56L250.32 708.539C136.039 653.685 57.1951 535.967 57.1951 399.964L57.1585 400ZM631.962 382.849C631.962 412.58 620.516 445.712 605.668 493.692L571.366 607.972L446.809 238.837C467.398 237.704 486.817 235.4 486.817 235.4C505.102 233.096 502.834 206.839 484.513 207.972C484.513 207.972 428.524 211.41 393.088 211.41C358.786 211.41 302.798 207.972 302.798 207.972C284.513 206.839 282.209 234.266 300.494 235.4C300.494 235.4 317.645 237.704 335.93 238.837L389.651 385.116L314.207 610.24L189.651 238.837C210.24 237.704 228.524 235.4 228.524 235.4C247.943 233.096 245.676 206.839 226.221 207.972C226.221 207.972 171.366 211.41 134.796 211.41H113.074C174.803 118.852 279.942 57.1221 399.927 57.1221C489.084 57.1221 570.196 91.4245 631.925 147.413C629.622 146.279 628.488 146.279 627.354 146.279C593.052 146.279 569.062 176.01 569.062 208.009C569.062 235.436 586.213 259.426 603.364 288.024C615.944 310.88 631.925 340.611 631.925 382.886L631.962 382.849ZM302.834 729.128L405.705 429.695L511.977 718.815C511.977 721.119 513.11 722.253 514.281 723.387C478.844 735.967 440.007 742.805 400 742.805C366.868 742.805 333.699 738.234 302.871 729.091L302.834 729.128ZM700.53 235.436C727.958 284.586 742.805 340.574 742.805 400C742.805 526.861 674.237 636.57 572.536 697.129L677.674 393.125C697.093 345.109 702.834 305.138 702.834 270.836C702.834 258.256 702.834 246.883 700.53 235.436ZM400 0.00012207C620.552 0.00012207 800 179.411 800 400C800 620.589 620.589 800 400 800C179.411 800 0 620.589 0 400C0 179.411 179.411 0.00012207 400 0.00012207ZM400 781.679C610.276 781.679 781.715 610.24 781.715 399.964C781.715 189.687 610.276 18.2484 400 18.2484C189.724 18.2484 18.2849 189.687 18.2849 399.964C18.2849 610.24 189.724 781.679 400 781.679Z" fill="#21759B"/>
</g>
<defs>
<clipPath id="clip0_482_453">
<rect width="800" height="800" fill="white"/>
</clipPath>
</defs>
</svg>
